<mxfile host="app.diagrams.net" modified="2023-10-01T06:43:40.570Z" agent="Mozilla/5.0 (Macintosh; Intel Mac OS X 10_15_7) AppleWebKit/537.36 (KHTML, like Gecko) Chrome/114.0.0.0 Safari/537.36" version="21.8.0" etag="92aVV_rtILKldqcGDNbB" type="github">
  <diagram name="第 1 页" id="Qe1fsWUPEdQ8CKuaPAll">
    <mxGraphModel>
      <root>
        <mxCell id="0" />
        <mxCell id="1" parent="0" />
      </root>
    </mxGraphModel>
  </diagram>
</mxfile>
